<svg width="22" height="19" viewBox="0 0 22 19" fill="none" xmlns="http://www.w3.org/2000/svg">
<path fill-rule="evenodd" clip-rule="evenodd" d="M12.715 1.85831C11.9382 0.563632 10.0618 0.563634 9.28502 1.85831L0.817399 15.971C0.0175695 17.3041 0.977796 19 2.53238 19H19.4676C21.0222 19 21.9824 17.3041 21.1826 15.971L12.715 1.85831ZM11.5703 12.375L11.8906 7.28906C11.901 7.11719 11.8385 6.96354 11.7031 6.82812C11.5729 6.6875 11.4167 6.61719 11.2344 6.61719H10.5781C10.3958 6.61719 10.237 6.68229 10.1016 6.8125C9.97136 6.94271 9.91146 7.09635 9.92188 7.27344L10.2422 12.375C10.2526 12.5521 10.3177 12.7057 10.4375 12.8359C10.5625 12.9661 10.7214 13.0312 10.9141 13.0312C11.0859 13.0312 11.2344 12.9688 11.3594 12.8438C11.4844 12.7188 11.5547 12.5625 11.5703 12.375ZM11.2031 15.0938H10.5781C10.3958 15.0938 10.2396 15.1615 10.1094 15.2969C9.97917 15.4271 9.91146 15.5833 9.90625 15.7656V16.3281C9.90625 16.5104 9.96875 16.6667 10.0938 16.7969C10.224 16.9219 10.3802 16.9844 10.5625 16.9844H11.2188C11.401 16.9844 11.5547 16.9219 11.6797 16.7969C11.8099 16.6667 11.875 16.5104 11.875 16.3281V15.75C11.875 15.5729 11.8073 15.4193 11.6719 15.2891C11.5417 15.1589 11.3854 15.0938 11.2031 15.0938Z" fill="white"/>
</svg>
