<svg width="18" height="18" viewBox="0 0 18 18" fill="none" xmlns="http://www.w3.org/2000/svg">
<path d="M17.9432 7.96333C17.9049 7.87182 17.8502 7.78856 17.7804 7.71881L15.5309 5.46939C15.2376 5.17687 14.7635 5.17687 14.4703 5.46939C14.177 5.76265 14.177 6.23743 14.4703 6.52995L15.4401 7.49977H11.2501C10.8353 7.49977 10.5 7.83578 10.5 8.24981C10.5 8.66384 10.8353 8.99985 11.2501 8.99985H15.4401L14.4702 9.96966C14.177 10.2629 14.177 10.7377 14.4702 11.0302C14.6165 11.1772 14.8085 11.25 15.0006 11.25C15.1926 11.25 15.3846 11.1773 15.5309 11.0302L17.7804 8.78081C17.8502 8.71179 17.9049 8.62854 17.9432 8.53628C18.0189 8.35335 18.0189 8.14633 17.9432 7.96333Z" fill="white"/>
<path d="M12.75 10.5C12.3353 10.5 12 10.836 12 11.25V15H9.00002V2.99998C9.00002 2.66923 8.78251 2.37673 8.46526 2.2815L5.86049 1.50001H12V5.25001C12 5.66401 12.3353 6 12.75 6C13.1647 6 13.5 5.66401 13.5 5.25001V0.750022C13.5 0.335988 13.1647 0 12.75 0H0.74999C0.72299 0 0.698978 0.01125 0.672752 0.0142383C0.63749 0.018 0.605252 0.0239765 0.571501 0.0322382C0.492751 0.0524882 0.421489 0.0832498 0.354763 0.125226C0.338274 0.135738 0.318024 0.136476 0.302274 0.148465C0.296227 0.153 0.293977 0.161261 0.287966 0.165761C0.206227 0.230238 0.137989 0.308988 0.0884885 0.402749C0.0779768 0.422999 0.0757268 0.444761 0.0675002 0.465749C0.0434884 0.522737 0.0172618 0.578249 0.00826174 0.641249C0.00450001 0.663749 0.01125 0.684737 0.0105117 0.706499C0.00977346 0.72151 0 0.73501 0 0.749987V15.75C0 16.1077 0.252739 16.4152 0.603002 16.485L8.10301 17.985C8.15177 17.9955 8.20127 18 8.25 18C8.42174 18 8.59049 17.9408 8.72549 17.8297C8.89874 17.6873 8.99999 17.475 8.99999 17.25V16.5H12.75C13.1647 16.5 13.5 16.164 13.5 15.75V11.25C13.5 10.836 13.1647 10.5 12.75 10.5Z" fill="currentColor"/>
</svg>
